# File created by Blade
# Date/Time:  Thu Jan 22 16:16:16 2015
#---------------------------------------------------------
:version 1.10
:name HOM
:units
  mass 1.0
  length 1.000000
  angle deg
:documentation
     Acclaim Skeleton File
:root
   axis xyz
   order TX TY TZ RX RY RZ
   position 0.000000 0.000000 0.000000
   orientation 0 0 0
:bonedata
   begin
      id 1
      name RightUpLeg_dum
      direction -1.000000 0.000000 0.000000
      length 3.766986
      axis 0.0 0.0 0.0 xyz
   end
   begin
      id 2
      name LeftUpLeg_dum
      direction 1.000000 0.000000 0.000000
      length 3.766986
      axis 0.0 0.0 0.0 xyz
   end
   begin
      id 3
      name Spine_dum
      direction 0.000000 1.000000 0.000000
      length 7.779697
      axis 0.0 0.0 0.0 xyz
   end
   begin
      id 4
      name RightUpLeg
      direction 0.000000 -1.000000 0.000000
      length 18.017682
      axis 0.0 0.0 0.0 xyz
      dof rx ry rz
   end
   begin
      id 5
      name RightLeg
      direction 0.000000 -1.000000 0.000000
      length 16.881075
      axis 0.0 0.0 0.0 xyz
      dof rx ry rz
   end
   begin
      id 6
      name RightFoot
      direction 0.000000 -0.258819 0.965926
      length 5.770812
      axis 15.0 0.0 0.0 xyz
      dof rx ry rz
   end
   begin
      id 7
      name RightToeBase
      direction 0.000000 0.000000 1.000000
      length 2.952750
      axis 0.0 0.0 0.0 xyz
      dof rx ry rz
   end
   begin
      id 8
      name LeftUpLeg
      direction 0.000000 -1.000000 0.000000
      length 18.017682
      axis 0.0 0.0 0.0 xyz
      dof rx ry rz
   end
   begin
      id 9
      name LeftLeg
      direction 0.000000 -1.000000 0.000000
      length 16.881075
      axis 0.0 0.0 0.0 xyz
      dof rx ry rz
   end
   begin
      id 10
      name LeftFoot
      direction 0.000000 -0.258819 0.965926
      length 5.770812
      axis 15.0 0.0 0.0 xyz
      dof rx ry rz
   end
   begin
      id 11
      name LeftToeBase
      direction 0.000000 0.000000 1.000000
      length 2.952750
      axis 0.0 0.0 0.0 xyz
      dof rx ry rz
   end
   begin
      id 12
      name Spine
      direction 0.000000 1.000000 0.000000
      length 0.000000
      axis 0.0 0.0 0.0 xyz
      dof rx ry rz
   end
   begin
      id 13
      name Spine_dum1
      direction 0.000000 1.000000 0.000000
      length 10.941760
      axis 0.0 0.0 0.0 xyz
   end
   begin
      id 14
      name Spine_dum2
      direction 0.000000 1.000000 0.000000
      length 10.941760
      axis 0.0 0.0 0.0 xyz
   end
   begin
      id 15
      name Spine_dum3
      direction 0.000000 1.000000 0.000000
      length 16.646042
      axis 0.0 0.0 0.0 xyz
   end
   begin
      id 16
      name RightShoulder
      direction -1.000000 0.000000 0.000000
      length 7.708937
      axis 0.0 0.0 90.0 xyz
      dof rx ry rz
   end
   begin
      id 17
      name RightArm
      direction -1.000000 0.000000 0.000000
      length 11.521345
      axis 0.0 0.0 90.0 xyz
      dof rx ry rz
   end
   begin
      id 18
      name RightForeArm
      direction -1.000000 0.000000 0.000000
      length 10.175898
      axis 0.0 0.0 90.0 xyz
      dof ry rz rx
   end
   begin
      id 19
      name RightHand
      direction -1.000000 0.000000 0.000000
      length 0.000000
      axis 0.0 0.0 90.0 xyz
      dof rx ry rz
   end
   begin
      id 20
      name RightHand_dum1
      direction -1.000000 0.000000 0.000000
      length 3.937000
      axis 0.0 0.0 90.0 xyz
   end
   begin
      id 21
      name RightHand_dum2
      direction 0.000000 0.000000 0.000000
      length 0.000000
      axis 0.0 0.0 90.0 xyz
   end
   begin
      id 22
      name RightHandThumb1
      direction 0.000000 0.000000 1.000000
      length 3.937000
      axis 0.0 0.0 90.0 xyz
      dof rx rz ry
   end
   begin
      id 23
      name LeftShoulder
      direction 1.000000 0.000000 0.000000
      length 7.708937
      axis 0.0 0.0 -90.0 xyz
      dof rx ry rz
   end
   begin
      id 24
      name LeftArm
      direction 1.000000 0.000000 0.000000
      length 11.521345
      axis 0.0 0.0 -90.0 xyz
      dof rx ry rz
   end
   begin
      id 25
      name LeftForeArm
      direction 1.000000 0.000000 0.000000
      length 10.175898
      axis 0.0 0.0 -90.0 xyz
      dof ry rz rx
   end
   begin
      id 26
      name LeftHand
      direction 1.000000 0.000000 0.000000
      length 0.000000
      axis 0.0 0.0 -90.0 xyz
      dof rx ry rz
   end
   begin
      id 27
      name LeftHand_dum1
      direction 1.000000 0.000000 0.000000
      length 3.937000
      axis 0.0 0.0 -90.0 xyz
   end
   begin
      id 28
      name LeftHand_dum2
      direction 0.000000 0.000000 0.000000
      length 0.000000
      axis 0.0 0.0 -90.0 xyz
   end
   begin
      id 29
      name LeftHandThumb1
      direction 0.000000 0.000000 1.000000
      length 3.937000
      axis 0.0 0.0 -90.0 xyz
      dof rx rz ry
   end
   begin
      id 30
      name Head
      direction 0.000000 1.000000 0.000000
      length 4.527550
      axis 0.0 0.0 0.0 xyz
      dof rx ry rz
   end
:hierarchy
   begin
      root RightUpLeg_dum LeftUpLeg_dum Spine_dum
      RightUpLeg_dum RightUpLeg
      LeftUpLeg_dum LeftUpLeg
      Spine_dum Spine
      RightUpLeg RightLeg
      RightLeg RightFoot
      RightFoot RightToeBase
      LeftUpLeg LeftLeg
      LeftLeg LeftFoot
      LeftFoot LeftToeBase
      Spine Spine_dum1 Spine_dum2 Spine_dum3
      Spine_dum1 RightShoulder
      Spine_dum2 LeftShoulder
      Spine_dum3 Head
      RightShoulder RightArm
      RightArm RightForeArm
      RightForeArm RightHand
      RightHand RightHand_dum1 RightHand_dum2
      RightHand_dum2 RightHandThumb1
      LeftShoulder LeftArm
      LeftArm LeftForeArm
      LeftForeArm LeftHand
      LeftHand LeftHand_dum1 LeftHand_dum2
      LeftHand_dum2 LeftHandThumb1
   end

# File created by Blade
# Date/Time:  Thu Jan 22 16:16:06 2015
# Frame Rate: 120.000 fps
#------------------------------------------------------
:FULLY-SPECIFIED
:DEGREES
300
root 1.458121 34.728131 -2.500726 4.382901 -10.833424 4.056165
RightUpLeg -5.937892 -8.351288 -24.689500
RightLeg -5.872374 -0.000000 0.000000
RightFoot 0.000613 -16.911591 29.127471
RightToeBase 14.752257 -0.000000 -0.000000
LeftUpLeg 2.183252 12.821650 17.328462
LeftLeg -4.138802 -0.000000 0.000000
LeftFoot -2.880087 13.140464 -34.881027
LeftToeBase 10.423502 -0.000000 -0.000000
Spine 21.208994 -8.354959 5.168509
RightShoulder -1.032039 -9.615866 -26.370154
RightArm 15.015017 24.707558 36.669896
RightForeArm 1.129563 -0.000000 24.606329
RightHand 11.385790 -0.000000 -19.560190
RightHandThumb1 -24.326973 -0.000000 -32.862282
LeftShoulder -18.910764 29.596232 14.912724
LeftArm 56.532017 -31.729037 -57.894446
LeftForeArm 41.099838 -0.000000 13.426363
LeftHand -18.141955 -0.000000 7.822288
LeftHandThumb1 -26.253704 0.000000 33.147579
Head 0.209945 9.551351 6.991156
301
root 1.461979 34.727712 -2.582177 4.476977 -11.040606 4.147652
RightUpLeg -6.271385 -8.200291 -24.738452
RightLeg -5.892392 -0.000000 0.000000
RightFoot 0.092189 -16.975236 29.070359
RightToeBase 14.843446 -0.000000 -0.000000
LeftUpLeg 2.012279 12.844443 17.204609
LeftLeg -4.107545 -0.000000 0.000000
LeftFoot -2.906813 13.322965 -34.875805
LeftToeBase 10.387134 -0.000000 -0.000000
Spine 21.709801 -8.602564 5.338371
RightShoulder -0.728945 -9.518323 -26.565559
RightArm 15.301910 24.600162 36.711212
RightForeArm 1.072836 -0.000000 24.898011
RightHand 11.444947 -0.000000 -19.763140
RightHandThumb1 -24.326973 -0.000000 -32.862282
LeftShoulder -18.632879 29.572696 15.111266
LeftArm 56.692113 -30.820016 -57.265034
LeftForeArm 41.138235 -0.000000 13.979989
LeftHand -18.424817 -0.000000 7.718734
LeftHandThumb1 -26.253704 0.000000 33.147579
Head 0.443908 9.435067 7.060103
302
root 1.465631 34.725586 -2.663841 4.594770 -11.234722 4.244307
RightUpLeg -6.627059 -8.173124 -24.773538
RightLeg -5.905176 -0.000000 0.000000
RightFoot 0.326325 -17.018015 28.775955
RightToeBase 14.630441 -0.000000 -0.000000
LeftUpLeg 1.785958 12.969784 17.068993
LeftLeg -4.029823 -0.000000 0.000000
LeftFoot -2.919904 13.393453 -34.834468
LeftToeBase 10.547611 -0.000000 -0.000000
Spine 22.194702 -8.823170 5.530865
RightShoulder -0.496428 -9.486051 -26.732382
RightArm 15.657380 24.463458 36.728319
RightForeArm 1.076769 -0.000000 25.169200
RightHand 11.685565 0.000000 -19.939125
RightHandThumb1 -24.326973 -0.000000 -32.862282
LeftShoulder -18.321104 29.449684 15.357561
LeftArm 56.805569 -29.800310 -56.538776
LeftForeArm 41.100170 -0.000000 14.499212
LeftHand -18.379383 0.000000 7.827456
LeftHandThumb1 -26.253704 0.000000 33.147579
Head 0.666123 9.284742 7.140723
303
root 1.474235 34.726097 -2.754143 4.753413 -11.389585 4.373680
RightUpLeg -7.015571 -8.071280 -24.858980
RightLeg -5.919256 -0.000000 0.000000
RightFoot 0.379834 -17.078700 28.773027
RightToeBase 14.697129 -0.000000 -0.000000
LeftUpLeg 1.473916 13.005402 16.876828
LeftLeg -3.939897 -0.000000 0.000000
LeftFoot -2.969934 13.549437 -34.831565
LeftToeBase 10.579366 -0.000000 -0.000000
Spine 22.660126 -9.078165 5.704014
RightShoulder -0.255078 -9.432971 -26.897474
RightArm 16.014893 24.397108 36.781331
RightForeArm 0.972041 -0.000000 25.412395
RightHand 12.017738 -0.000000 -20.051834
RightHandThumb1 -24.326973 -0.000000 -32.862282
LeftShoulder -17.951799 29.239368 15.679666
LeftArm 56.901493 -28.814544 -55.959520
LeftForeArm 41.068116 -0.000000 15.162014
LeftHand -18.243229 -0.000000 8.118084
LeftHandThumb1 -26.253704 0.000000 33.147579
Head 0.860939 9.157995 7.201186
304
root 1.482833 34.723774 -2.840078 4.908053 -11.602930 4.528552
RightUpLeg -7.435719 -8.032729 -24.960607
RightLeg -5.918561 -0.000000 0.000000
RightFoot 0.518361 -17.072271 28.649677
RightToeBase 14.703403 -0.000000 -0.000000
LeftUpLeg 1.196409 13.210801 16.657910
LeftLeg -3.865575 -0.000000 0.000000
LeftFoot -2.917587 13.613832 -34.648083
LeftToeBase 10.432588 -0.000000 -0.000000
Spine 23.111885 -9.287469 5.824068
RightShoulder 0.052081 -9.335860 -27.049363
RightArm 16.277044 24.254588 36.790844
RightForeArm 1.041554 -0.000000 25.700653
RightHand 12.213721 -0.000000 -20.115770
RightHandThumb1 -24.326973 -0.000000 -32.862282
LeftShoulder -17.559412 29.185358 16.033420
LeftArm 57.143207 -27.905235 -55.523009
LeftForeArm 40.906938 0.000000 15.846159
LeftHand -18.345219 -0.000000 8.398470
LeftHandThumb1 -26.253704 0.000000 33.147579
Head 1.105055 8.980974 7.295218
305
root 1.493338 34.723011 -2.926164 5.032766 -11.714253 4.683108
RightUpLeg -7.787875 -8.104539 -25.063116
RightLeg -5.892500 -0.000000 0.000000
RightFoot 0.715437 -17.087927 28.481910
RightToeBase 14.582022 -0.000000 -0.000000
LeftUpLeg 0.885262 13.322257 16.440687
LeftLeg -3.747376 -0.000000 0.000000
LeftFoot -2.903393 13.650786 -34.481614
LeftToeBase 10.357126 -0.000000 -0.000000
Spine 23.613193 -9.604340 5.957872
RightShoulder 0.346484 -9.336634 -27.154831
RightArm 16.631610 24.194218 36.759495
RightForeArm 1.023604 -0.000000 25.977470
RightHand 12.290848 -0.000000 -20.149659
RightHandThumb1 -24.326973 -0.000000 -32.862282
LeftShoulder -17.207460 29.186468 16.355315
LeftArm 57.502475 -26.959824 -55.049682
LeftForeArm 40.848859 -0.000000 16.520913
LeftHand -18.505389 -0.000000 8.785579
LeftHandThumb1 -26.253704 0.000000 33.147579
Head 1.355247 8.790955 7.391859
306
root 1.497176 34.722373 -3.011379 5.183339 -11.902136 4.791796
RightUpLeg -8.153596 -8.049278 -25.113747
RightLeg -5.947798 -0.000000 0.000000
RightFoot 0.824913 -17.094605 28.461489
RightToeBase 14.569332 -0.000000 -0.000000
LeftUpLeg 0.615543 13.496129 16.282006
LeftLeg -3.672613 -0.000000 0.000000
LeftFoot -2.884382 13.686301 -34.401253
LeftToeBase 10.344135 -0.000000 -0.000000
Spine 24.108684 -9.853670 6.130769
RightShoulder 0.589170 -9.247716 -27.263842
RightArm 17.050347 24.041827 36.798061
RightForeArm 0.943896 -0.000000 26.216246
RightHand 12.415862 -0.000000 -20.149000
RightHandThumb1 -24.326973 -0.000000 -32.862282
LeftShoulder -16.818140 29.156779 16.727590
LeftArm 57.869083 -26.017338 -54.671658
LeftForeArm 41.173250 -0.000000 17.080927
LeftHand -18.340495 -0.000000 9.472871
LeftHandThumb1 -26.253704 0.000000 33.147579
Head 1.622188 8.635288 7.472183
307
root 1.505404 34.721356 -3.098367 5.353468 -12.071707 4.925507
RightUpLeg -8.556809 -8.008888 -25.198019
RightLeg -5.953039 -0.000000 0.000000
RightFoot 0.934184 -17.128686 28.390105
RightToeBase 14.489909 -0.000000 -0.000000
LeftUpLeg 0.306628 13.615610 16.083649
LeftLeg -3.595402 -0.000000 0.000000
LeftFoot -2.890471 13.771978 -34.279536
LeftToeBase 10.294906 -0.000000 -0.000000
Spine 24.575306 -10.095390 6.291529
RightShoulder 0.863128 -9.055697 -27.400607
RightArm 17.306680 23.772451 36.808042
RightForeArm 0.844564 -0.000000 26.502976
RightHand 12.479022 -0.000000 -20.111956
RightHandThumb1 -24.326973 -0.000000 -32.862282
LeftShoulder -16.321367 29.006332 17.224166
LeftArm 58.095916 -24.984714 -54.190111
LeftForeArm 41.095837 -0.000000 17.686555
LeftHand -18.346729 -0.000000 10.059930
LeftHandThumb1 -26.253704 0.000000 33.147579
Head 1.906374 8.386561 7.554643
308
root 1.513833 34.720154 -3.186196 5.525442 -12.270522 5.066207
RightUpLeg -8.993590 -8.048309 -25.266543
RightLeg -5.943697 -0.000000 0.000000
RightFoot 1.093976 -17.056134 28.271128
RightToeBase 14.318073 -0.000000 -0.000000
LeftUpLeg 0.016349 13.775471 15.877156
LeftLeg -3.545494 -0.000000 0.000000
LeftFoot -2.865675 13.849541 -34.160296
LeftToeBase 10.270696 -0.000000 -0.000000
Spine 25.056057 -10.352373 6.398051
RightShoulder 1.141902 -8.908244 -27.500644
RightArm 17.696891 23.487829 36.831526
RightForeArm 0.749233 -0.000000 26.731926
RightHand 12.612805 -0.000000 -20.118521
RightHandThumb1 -24.326973 -0.000000 -32.862282
LeftShoulder -15.902706 28.995261 17.711993
LeftArm 58.515142 -24.013491 -53.843209
LeftForeArm 40.888359 -0.000000 18.351601
LeftHand -18.594621 -0.000000 10.415638
LeftHandThumb1 -26.253704 0.000000 33.147579
Head 2.207927 8.126776 7.700632
309
root 1.525948 34.721000 -3.278977 5.720357 -12.448608 5.200484
RightUpLeg -9.439032 -8.031338 -25.344403
RightLeg -5.941054 -0.000000 0.000000
RightFoot 1.203005 -17.133276 28.231074
RightToeBase 14.340333 -0.000000 -0.000000
LeftUpLeg -0.322736 13.897409 15.665063
LeftLeg -3.473691 -0.000000 0.000000
LeftFoot -2.843242 13.929268 -34.039664
LeftToeBase 10.018081 -0.000000 -0.000000
Spine 25.541626 -10.617327 6.524132
RightShoulder 1.403487 -9.006787 -27.593436
RightArm 18.276779 23.334968 36.873769
RightForeArm 0.628393 -0.000000 26.891369
RightHand 12.735559 -0.000000 -20.281169
RightHandThumb1 -24.326973 -0.000000 -32.862282
LeftShoulder -15.444100 28.869788 18.280859
LeftArm 58.964073 -23.010523 -53.583534
LeftForeArm 40.769532 -0.000000 18.886918
LeftHand -18.566729 0.000000 10.993418
LeftHandThumb1 -26.253704 0.000000 33.147579
Head 2.454196 7.826119 7.843179
310
root 1.532564 34.720248 -3.365508 5.892359 -12.667843 5.308954
RightUpLeg -9.871958 -8.002757 -25.386138
RightLeg -5.946500 -0.000000 0.000000
RightFoot 1.323185 -17.114190 28.173086
RightToeBase 14.229667 -0.000000 -0.000000
LeftUpLeg -0.605196 14.056319 15.500850
LeftLeg -3.411045 -0.000000 0.000000
LeftFoot -2.854353 14.010497 -33.993456
LeftToeBase 10.049279 -0.000000 -0.000000
Spine 26.064943 -10.806778 6.668619
RightShoulder 1.647664 -9.077902 -27.661519
RightArm 18.804024 23.275038 36.967025
RightForeArm 0.016951 -0.000000 27.168565
RightHand 12.541584 -0.000000 -20.269916
RightHandThumb1 -24.326973 -0.000000 -32.862282
LeftShoulder -14.954727 28.695276 18.894593
LeftArm 59.496811 -22.004386 -53.367084
LeftForeArm 40.505247 -0.000000 19.342345
LeftHand -18.632709 -0.000000 11.270598
LeftHandThumb1 -26.253704 0.000000 33.147579
Head 2.705081 7.452531 8.031301
311
root 1.539614 34.719181 -3.452715 6.066370 -12.884795 5.428622
RightUpLeg -10.309795 -7.954998 -25.444463
RightLeg -5.939276 -0.000000 0.000000
RightFoot 1.447387 -17.124615 28.026599
RightToeBase 14.025830 -0.000000 -0.000000
LeftUpLeg -0.863238 14.117691 15.325476
LeftLeg -3.398915 -0.000000 0.000000
LeftFoot -2.879503 14.160423 -33.901650
LeftToeBase 10.019558 -0.000000 -0.000000
Spine 26.601196 -10.990804 6.780206
RightShoulder 1.938434 -9.057510 -27.744011
RightArm 19.268529 23.259587 37.155613
RightForeArm -0.482780 -0.000000 27.387786
RightHand 12.614334 -0.000000 -20.356630
RightHandThumb1 -24.326973 -0.000000 -32.862282
LeftShoulder -14.526450 28.464606 19.502371
LeftArm 60.139641 -20.948852 -53.109134
LeftForeArm 40.178752 -0.000000 19.685020
LeftHand -18.611049 -0.000000 11.685900
LeftHandThumb1 -26.253704 0.000000 33.147579
Head 2.892206 7.004194 8.216403
